<svg xmlns="http://www.w3.org/2000/svg" viewBox="0 0 1024 1024">
  <defs>
    <linearGradient id="heart" x1="0%" y1="0%" x2="100%" y2="100%">
      <stop offset="0%"   stop-color="#FF7B9C"/>
      <stop offset="100%" stop-color="#FF5C7C"/>
    </linearGradient>
    <filter id="soft" x="-20%" y="-20%" width="140%" height="140%">
      <feDropShadow dx="0" dy="14" stdDeviation="22" flood-color="#000000" flood-opacity="0.18"/>
    </filter>
  </defs>

  <!-- Transparente: bg vem do adaptiveIcon.backgroundColor no app.json -->
  <!-- Conteúdo dentro da safe zone (~66% central) -->
  <g transform="translate(512,512) scale(0.66) translate(-512,-512)">
    <g filter="url(#soft)">
      <path d="M512 250 L792 470 L232 470 Z" fill="#FFFFFF"/>
      <rect x="300" y="455" width="424" height="320" rx="34" fill="#FFFFFF"/>
    </g>
    <path d="M512 715
             C512 715 410 648 410 565
             C410 520 446 488 492 488
             C512 488 512 488 512 510
             C512 488 512 488 532 488
             C578 488 614 520 614 565
             C614 648 512 715 512 715 Z"
          fill="url(#heart)"/>
  </g>
</svg>
